# xmcd
#
# Track frame offsets:
#	150
#	56169
#	86849
#	112099
#	153805
#	177965
#	208401
#	244868
#	251486
#
# Disc length: 3647 seconds
# Revision: 7
# Processed by: cddbd v1.5.2PL0 Copyright (c) Steve Scherf et al.
# Submitted via: dBpowerAMP V12.0
#
DISCID=7f0e3d09
DTITLE=Ludwig van Beethoven - Quintet Op.16 - Trio op.11 - Horn Sonata Op.17
DYEAR=2007
DGENRE=Classique
TTITLE0=Quintet for piano, oboe, clarinet, horn and bassoon in E flat major, Op. 16: Grave-allegro ma non troppo
TTITLE1=Quintet for piano, oboe, clarinet, horn and bassoon in E flat major, Op. 16: Andante cantabile
TTITLE2=Quintet for piano, oboe, clarinet, horn and bassoon in E flat major, Op. 16: Rondo, allegro ma non troppo
TTITLE3=Trio for clarinet (or violin), cello and piano No. 4 in B flat major ("Gassenhauer"), Op. 11: Allegro con brio
TTITLE4=Trio for clarinet (or violin), cello and piano No. 4 in B flat major ("Gassenhauer"), Op. 11: Adagio
TTITLE5=Trio for clarinet (or violin), cello and piano No. 4 in B flat major ("Gassenhauer"), Op. 11: Allegretto, variations on "Pria ch'io l'impegno"
TTITLE6=Sonata for horn and piano in F major, Op. 17: Allegro moderato
TTITLE7=Sonata for horn and piano in F major, Op. 17: Poco adagio, quasi andante
TTITLE8=Sonata for horn and piano in F major, Op. 17: Rondo, allegro moderato
EXTD=
EXTT0=
EXTT1=
EXTT2=
EXTT3=
EXTT4=
EXTT5=
EXTT6=
EXTT7=
EXTT8=
PLAYORDER=
